<svg width="24" height="24" viewBox="0 0 24 24" fill="none" xmlns="http://www.w3.org/2000/svg">
<g id="expand_more">
<mask id="mask0_1643_2809" style="mask-type:alpha" maskUnits="userSpaceOnUse" x="0" y="0" width="24" height="24">
<rect id="Bounding box" width="24" height="24" fill="#D9D9D9"/>
</mask>
<g mask="url(#mask0_1643_2809)">
<g id="calendar_month">
<mask id="mask1_1643_2809" style="mask-type:alpha" maskUnits="userSpaceOnUse" x="5" y="4" width="15" height="15">
<rect id="Bounding box_2" x="5" y="4" width="15" height="15" fill="#D9D9D9"/>
</mask>
<g mask="url(#mask1_1643_2809)">
<path id="calendar_month_2" d="M8.125 17.75C7.78125 17.75 7.48698 17.6276 7.24219 17.3828C6.9974 17.138 6.875 16.8438 6.875 16.5V7.75C6.875 7.40625 6.9974 7.11198 7.24219 6.86719C7.48698 6.6224 7.78125 6.5 8.125 6.5H8.75V5.25H10V6.5H15V5.25H16.25V6.5H16.875C17.2188 6.5 17.513 6.6224 17.7578 6.86719C18.0026 7.11198 18.125 7.40625 18.125 7.75V16.5C18.125 16.8438 18.0026 17.138 17.7578 17.3828C17.513 17.6276 17.2188 17.75 16.875 17.75H8.125ZM8.125 16.5H16.875V10.25H8.125V16.5ZM8.125 9H16.875V7.75H8.125V9ZM12.5 12.75C12.3229 12.75 12.1745 12.6901 12.0547 12.5703C11.9349 12.4505 11.875 12.3021 11.875 12.125C11.875 11.9479 11.9349 11.7995 12.0547 11.6797C12.1745 11.5599 12.3229 11.5 12.5 11.5C12.6771 11.5 12.8255 11.5599 12.9453 11.6797C13.0651 11.7995 13.125 11.9479 13.125 12.125C13.125 12.3021 13.0651 12.4505 12.9453 12.5703C12.8255 12.6901 12.6771 12.75 12.5 12.75ZM10 12.75C9.82292 12.75 9.67448 12.6901 9.55469 12.5703C9.4349 12.4505 9.375 12.3021 9.375 12.125C9.375 11.9479 9.4349 11.7995 9.55469 11.6797C9.67448 11.5599 9.82292 11.5 10 11.5C10.1771 11.5 10.3255 11.5599 10.4453 11.6797C10.5651 11.7995 10.625 11.9479 10.625 12.125C10.625 12.3021 10.5651 12.4505 10.4453 12.5703C10.3255 12.6901 10.1771 12.75 10 12.75ZM15 12.75C14.8229 12.75 14.6745 12.6901 14.5547 12.5703C14.4349 12.4505 14.375 12.3021 14.375 12.125C14.375 11.9479 14.4349 11.7995 14.5547 11.6797C14.6745 11.5599 14.8229 11.5 15 11.5C15.1771 11.5 15.3255 11.5599 15.4453 11.6797C15.5651 11.7995 15.625 11.9479 15.625 12.125C15.625 12.3021 15.5651 12.4505 15.4453 12.5703C15.3255 12.6901 15.1771 12.75 15 12.75ZM12.5 15.25C12.3229 15.25 12.1745 15.1901 12.0547 15.0703C11.9349 14.9505 11.875 14.8021 11.875 14.625C11.875 14.4479 11.9349 14.2995 12.0547 14.1797C12.1745 14.0599 12.3229 14 12.5 14C12.6771 14 12.8255 14.0599 12.9453 14.1797C13.0651 14.2995 13.125 14.4479 13.125 14.625C13.125 14.8021 13.0651 14.9505 12.9453 15.0703C12.8255 15.1901 12.6771 15.25 12.5 15.25ZM10 15.25C9.82292 15.25 9.67448 15.1901 9.55469 15.0703C9.4349 14.9505 9.375 14.8021 9.375 14.625C9.375 14.4479 9.4349 14.2995 9.55469 14.1797C9.67448 14.0599 9.82292 14 10 14C10.1771 14 10.3255 14.0599 10.4453 14.1797C10.5651 14.2995 10.625 14.4479 10.625 14.625C10.625 14.8021 10.5651 14.9505 10.4453 15.0703C10.3255 15.1901 10.1771 15.25 10 15.25ZM15 15.25C14.8229 15.25 14.6745 15.1901 14.5547 15.0703C14.4349 14.9505 14.375 14.8021 14.375 14.625C14.375 14.4479 14.4349 14.2995 14.5547 14.1797C14.6745 14.0599 14.8229 14 15 14C15.1771 14 15.3255 14.0599 15.4453 14.1797C15.5651 14.2995 15.625 14.4479 15.625 14.625C15.625 14.8021 15.5651 14.9505 15.4453 15.0703C15.3255 15.1901 15.1771 15.25 15 15.25Z" fill="#1C1B1F"/>
</g>
</g>
</g>
</g>
</svg>
