<svg xmlns="http://www.w3.org/2000/svg" width="13" height="14" viewBox="0 0 13 14" fill="none">
<g id="cancel">
<mask id="mask0_35_15446" style="mask-type:alpha" maskUnits="userSpaceOnUse" x="0" y="0" width="13" height="14" fill="#ffffff">
<rect id="Bounding box" y="0.554688" width="13" height="13" fill="#D9D9D9"/>
</mask>
<g mask="url(#mask0_35_15446)">
<path id="cancel_2" d="M4.55016 9.76367L6.50016 7.81367L8.45016 9.76367L9.2085 9.00534L7.2585 7.05534L9.2085 5.10534L8.45016 4.347L6.50016 6.29701L4.55016 4.347L3.79183 5.10534L5.74183 7.05534L3.79183 9.00534L4.55016 9.76367ZM6.50016 12.472C5.75086 12.472 5.04669 12.3298 4.38766 12.0454C3.72863 11.7611 3.15537 11.3751 2.66787 10.8876C2.18037 10.4001 1.79443 9.82687 1.51006 9.16784C1.22568 8.50881 1.0835 7.80464 1.0835 7.05534C1.0835 6.30603 1.22568 5.60187 1.51006 4.94284C1.79443 4.28381 2.18037 3.71055 2.66787 3.22305C3.15537 2.73555 3.72863 2.34961 4.38766 2.06523C5.04669 1.78086 5.75086 1.63867 6.50016 1.63867C7.24947 1.63867 7.95363 1.78086 8.61266 2.06523C9.27169 2.34961 9.84495 2.73555 10.3325 3.22305C10.82 3.71055 11.2059 4.28381 11.4903 4.94284C11.7746 5.60187 11.9168 6.30603 11.9168 7.05534C11.9168 7.80464 11.7746 8.50881 11.4903 9.16784C11.2059 9.82687 10.82 10.4001 10.3325 10.8876C9.84495 11.3751 9.27169 11.7611 8.61266 12.0454C7.95363 12.3298 7.24947 12.472 6.50016 12.472ZM6.50016 11.3887C7.70988 11.3887 8.73454 10.9689 9.57412 10.1293C10.4137 9.28971 10.8335 8.26506 10.8335 7.05534C10.8335 5.84562 10.4137 4.82096 9.57412 3.98138C8.73454 3.1418 7.70988 2.72201 6.50016 2.72201C5.29044 2.72201 4.26579 3.1418 3.4262 3.98138C2.58662 4.82096 2.16683 5.84562 2.16683 7.05534C2.16683 8.26506 2.58662 9.28971 3.4262 10.1293C4.26579 10.9689 5.29044 11.3887 6.50016 11.3887Z" fill="#000000"/>
</g>
</g>
</svg>