<?xml version="1.0" encoding="UTF-8"?>
<svg version="1.1" viewBox="0 0 12.7 15.875" xmlns="http://www.w3.org/2000/svg">
<g style="">
<path d="m4.6395 0.52968c-0.56774 0-1.0643 0.33146-1.3069 0.80925-0.15189 0.25608-0.06259 0.58665 0.1974 0.73174 0.25472 0.1421 0.57647 0.05171 0.71934-0.20257 0.04912-0.16846 0.19966-0.28164 0.39016-0.28164h6.0663c0.23423 0 0.40618 0.17195 0.40618 0.40618v6.0684c0 0.1835-0.10574 0.32756-0.26407 0.38189-0.25429 0.14286-0.34467 0.46514-0.20257 0.71985 0.14509 0.26 0.47566 0.3493 0.73174 0.1974 0.46961-0.24493 0.79375-0.73789 0.79375-1.2991v-6.0684c0-0.80224-0.66279-1.463-1.465-1.463zm-2.6453 2.6469c-0.80224 0-1.465 0.6602-1.465 1.4624v6.0684c0 0.80224 0.66279 1.463 1.465 1.463h6.0663c0.80224 0 1.465-0.66072 1.465-1.463v-6.0684c0-0.80224-0.66279-1.4624-1.465-1.4624zm0 1.0563h6.0663c0.23423 0 0.40618 0.17195 0.40618 0.40618v6.0684c0 0.23423-0.17195 0.40669-0.40618 0.40669h-6.0663c-0.23423 0-0.40618-0.17246-0.40618-0.40669v-6.0684c0-0.23423 0.17195-0.40618 0.40618-0.40618z" color="#000000" color-rendering="auto" dominant-baseline="auto" image-rendering="auto" shape-rendering="auto" solid-color="#000000" style="font-feature-settings:normal;font-variant-alternates:normal;font-variant-caps:normal;font-variant-ligatures:normal;font-variant-numeric:normal;font-variant-position:normal;isolation:auto;mix-blend-mode:normal;paint-order:normal;shape-padding:0;text-decoration-color:#000000;text-decoration-line:none;text-decoration-style:solid;text-indent:0;text-orientation:mixed;text-transform:none;white-space:normal"/>
</g>
<text y="27.7" fill="#000000" font-family="'Helvetica Neue', Helvetica, Arial-Unicode, Arial, Sans-serif" font-size="5px" font-weight="bold">Created by Ranah Pixel Studio</text>
<text y="32.7" fill="#000000" font-family="'Helvetica Neue', Helvetica, Arial-Unicode, Arial, Sans-serif" font-size="5px" font-weight="bold">from the Noun Project</text>
</svg>
