<svg width="16" height="16" viewBox="0 0 16 16" fill="none" xmlns="http://www.w3.org/2000/svg">
<mask id="mask0_5_202" style="mask-type:alpha" maskUnits="userSpaceOnUse" x="0" y="0" width="16" height="16">
<rect width="16" height="16" fill="#D9D9D9"/>
</mask>
<g mask="url(#mask0_5_202)">
<path d="M7.99996 11.3333L10.6666 8.66666L9.73329 7.73333L8.66663 8.76666V5.99999H7.33329V8.76666L6.26663 7.73333L5.33329 8.66666L7.99996 11.3333ZM3.99996 14.6667C3.63329 14.6667 3.3194 14.5361 3.05829 14.275C2.79718 14.0139 2.66663 13.7 2.66663 13.3333V5.33333L6.66663 1.33333H12C12.3666 1.33333 12.6805 1.46388 12.9416 1.72499C13.2027 1.98611 13.3333 2.29999 13.3333 2.66666V13.3333C13.3333 13.7 13.2027 14.0139 12.9416 14.275C12.6805 14.5361 12.3666 14.6667 12 14.6667H3.99996ZM3.99996 13.3333H12V2.66666H7.23329L3.99996 5.89999V13.3333Z" fill="white"/>
</g>
</svg>
