<svg width="13" height="13" viewBox="0 0 13 13" fill="none" xmlns="http://www.w3.org/2000/svg">
<mask id="mask0_35_14703" style="mask-type:alpha" maskUnits="userSpaceOnUse" x="0" y="0" width="13" height="13">
<rect width="13" height="13" fill="#D9D9D9"/>
</mask>
<g mask="url(#mask0_35_14703)">
<path d="M6.47308 9.75065C6.66266 9.75065 6.82291 9.6852 6.95381 9.5543C7.08471 9.42339 7.15016 9.26315 7.15016 9.07357C7.15016 8.88398 7.08471 8.72374 6.95381 8.59284C6.82291 8.46194 6.66266 8.39648 6.47308 8.39648C6.2835 8.39648 6.12325 8.46194 5.99235 8.59284C5.86145 8.72374 5.796 8.88398 5.796 9.07357C5.796 9.26315 5.86145 9.42339 5.99235 9.5543C6.12325 9.6852 6.2835 9.75065 6.47308 9.75065ZM5.98558 7.66523H6.98766C6.98766 7.36732 7.02152 7.1326 7.08923 6.96107C7.15693 6.78954 7.34877 6.55482 7.66475 6.2569C7.89947 6.02218 8.08454 5.79874 8.21995 5.58659C8.35537 5.37444 8.42308 5.1194 8.42308 4.82148C8.42308 4.31593 8.23801 3.92773 7.86787 3.6569C7.49773 3.38607 7.05988 3.25065 6.55433 3.25065C6.03975 3.25065 5.62221 3.38607 5.30172 3.6569C4.98124 3.92773 4.7578 4.25273 4.63141 4.6319L5.52516 4.98398C5.5703 4.82148 5.67186 4.64544 5.82985 4.45586C5.98784 4.26628 6.22933 4.17148 6.55433 4.17148C6.84322 4.17148 7.05988 4.25048 7.20433 4.40846C7.34877 4.56645 7.421 4.74023 7.421 4.92982C7.421 5.11037 7.36683 5.27964 7.2585 5.43763C7.15016 5.59562 7.01475 5.74232 6.85225 5.87773C6.45502 6.22982 6.21127 6.49614 6.121 6.67669C6.03072 6.85725 5.98558 7.18676 5.98558 7.66523ZM6.50016 11.9173C5.75086 11.9173 5.04669 11.7751 4.38766 11.4908C3.72863 11.2064 3.15537 10.8204 2.66787 10.3329C2.18037 9.84544 1.79443 9.27218 1.51006 8.61315C1.22568 7.95412 1.0835 7.24996 1.0835 6.50065C1.0835 5.75135 1.22568 5.04718 1.51006 4.38815C1.79443 3.72912 2.18037 3.15586 2.66787 2.66836C3.15537 2.18086 3.72863 1.79492 4.38766 1.51055C5.04669 1.22617 5.75086 1.08398 6.50016 1.08398C7.24947 1.08398 7.95363 1.22617 8.61266 1.51055C9.27169 1.79492 9.84495 2.18086 10.3325 2.66836C10.82 3.15586 11.2059 3.72912 11.4903 4.38815C11.7746 5.04718 11.9168 5.75135 11.9168 6.50065C11.9168 7.24996 11.7746 7.95412 11.4903 8.61315C11.2059 9.27218 10.82 9.84544 10.3325 10.3329C9.84495 10.8204 9.27169 11.2064 8.61266 11.4908C7.95363 11.7751 7.24947 11.9173 6.50016 11.9173ZM6.50016 10.834C7.70988 10.834 8.73454 10.4142 9.57412 9.57461C10.4137 8.73503 10.8335 7.71037 10.8335 6.50065C10.8335 5.29093 10.4137 4.26628 9.57412 3.42669C8.73454 2.58711 7.70988 2.16732 6.50016 2.16732C5.29044 2.16732 4.26579 2.58711 3.4262 3.42669C2.58662 4.26628 2.16683 5.29093 2.16683 6.50065C2.16683 7.71037 2.58662 8.73503 3.4262 9.57461C4.26579 10.4142 5.29044 10.834 6.50016 10.834Z" fill="#232323"/>
</g>
</svg>
