<svg width="16" height="16" viewBox="0 0 16 16" fill="none" xmlns="http://www.w3.org/2000/svg">
<mask id="mask0_5_48" style="mask-type:alpha" maskUnits="userSpaceOnUse" x="0" y="0" width="16" height="16">
<rect width="16" height="16" fill="#D9D9D9"/>
</mask>
<g mask="url(#mask0_5_48)">
<path d="M2.16669 6.43332C2.08891 6.37777 2.04169 6.30832 2.02502 6.22499C2.00835 6.14166 2.03335 6.05555 2.10002 5.96666C2.78891 5.02221 3.6528 4.28888 4.69169 3.76666C5.73058 3.24444 6.83891 2.98332 8.01669 2.98332C9.19446 2.98332 10.3056 3.2361 11.35 3.74166C12.3945 4.24721 13.2667 4.97777 13.9667 5.93332C14.0445 6.03332 14.0695 6.12221 14.0417 6.19999C14.0139 6.27777 13.9667 6.34444 13.9 6.39999C13.8334 6.45555 13.7556 6.48055 13.6667 6.47499C13.5778 6.46944 13.5 6.42221 13.4334 6.33332C12.8222 5.46666 12.0361 4.80277 11.075 4.34166C10.1139 3.88055 9.09446 3.64999 8.01669 3.64999C6.93891 3.64999 5.9278 3.88055 4.98335 4.34166C4.03891 4.80277 3.25558 5.46666 2.63335 6.33332C2.56669 6.43332 2.48891 6.48888 2.40002 6.49999C2.31113 6.5111 2.23335 6.48888 2.16669 6.43332ZM9.90002 14.65C8.74446 14.3611 7.80002 13.7861 7.06669 12.925C6.33335 12.0639 5.96669 11.0111 5.96669 9.76666C5.96669 9.2111 6.16669 8.74444 6.56669 8.36666C6.96669 7.98888 7.45002 7.79999 8.01669 7.79999C8.58335 7.79999 9.06669 7.98888 9.46669 8.36666C9.86669 8.74444 10.0667 9.2111 10.0667 9.76666C10.0667 10.1333 10.2056 10.4417 10.4834 10.6917C10.7611 10.9417 11.0889 11.0667 11.4667 11.0667C11.8445 11.0667 12.1667 10.9417 12.4334 10.6917C12.7 10.4417 12.8334 10.1333 12.8334 9.76666C12.8334 8.47777 12.3611 7.39444 11.4167 6.51666C10.4722 5.63888 9.34446 5.19999 8.03335 5.19999C6.72224 5.19999 5.59446 5.63888 4.65002 6.51666C3.70558 7.39444 3.23335 8.47221 3.23335 9.74999C3.23335 10.0167 3.25835 10.35 3.30835 10.75C3.35835 11.15 3.4778 11.6167 3.66669 12.15C3.70002 12.25 3.69724 12.3389 3.65835 12.4167C3.61946 12.4944 3.55558 12.55 3.46669 12.5833C3.3778 12.6167 3.29169 12.6139 3.20835 12.575C3.12502 12.5361 3.06669 12.4722 3.03335 12.3833C2.86669 11.95 2.74724 11.5194 2.67502 11.0917C2.6028 10.6639 2.56669 10.2222 2.56669 9.76666C2.56669 8.28888 3.1028 7.04999 4.17502 6.04999C5.24724 5.04999 6.5278 4.54999 8.01669 4.54999C9.51669 4.54999 10.8056 5.04999 11.8834 6.04999C12.9611 7.04999 13.5 8.28888 13.5 9.76666C13.5 10.3222 13.3028 10.7861 12.9084 11.1583C12.5139 11.5305 12.0334 11.7167 11.4667 11.7167C10.9 11.7167 10.4139 11.5305 10.0084 11.1583C9.6028 10.7861 9.40002 10.3222 9.40002 9.76666C9.40002 9.39999 9.26391 9.09166 8.99169 8.84166C8.71946 8.59166 8.39446 8.46666 8.01669 8.46666C7.63891 8.46666 7.31391 8.59166 7.04169 8.84166C6.76946 9.09166 6.63335 9.39999 6.63335 9.76666C6.63335 10.8444 6.9528 11.7444 7.59169 12.4667C8.23057 13.1889 9.05557 13.6944 10.0667 13.9833C10.1667 14.0167 10.2334 14.0722 10.2667 14.15C10.3 14.2278 10.3056 14.3111 10.2834 14.4C10.2611 14.4778 10.2167 14.5444 10.15 14.6C10.0834 14.6555 10 14.6722 9.90002 14.65ZM4.33335 2.94999C4.24446 3.00555 4.15558 3.01944 4.06669 2.99166C3.9778 2.96388 3.91113 2.90555 3.86669 2.81666C3.82224 2.72777 3.81113 2.64721 3.83335 2.57499C3.85558 2.50277 3.91113 2.43888 4.00002 2.38332C4.62224 2.04999 5.27224 1.79444 5.95002 1.61666C6.6278 1.43888 7.31669 1.34999 8.01669 1.34999C8.7278 1.34999 9.42224 1.4361 10.1 1.60832C10.7778 1.78055 11.4334 2.02777 12.0667 2.34999C12.1667 2.40555 12.225 2.47221 12.2417 2.54999C12.2584 2.62777 12.25 2.70555 12.2167 2.78332C12.1834 2.8611 12.1278 2.92221 12.05 2.96666C11.9722 3.0111 11.8778 3.00555 11.7667 2.94999C11.1778 2.64999 10.5695 2.41944 9.94169 2.25832C9.31391 2.09721 8.67224 2.01666 8.01669 2.01666C7.37224 2.01666 6.73891 2.09166 6.11669 2.24166C5.49446 2.39166 4.90002 2.62777 4.33335 2.94999ZM6.30002 14.4167C5.64446 13.7278 5.14169 13.025 4.79169 12.3083C4.44169 11.5917 4.26669 10.7444 4.26669 9.76666C4.26669 8.75555 4.63335 7.90277 5.36669 7.20832C6.10002 6.51388 6.98335 6.16666 8.01669 6.16666C9.05002 6.16666 9.93891 6.51388 10.6834 7.20832C11.4278 7.90277 11.8 8.75555 11.8 9.76666C11.8 9.86666 11.7695 9.94721 11.7084 10.0083C11.6472 10.0694 11.5667 10.1 11.4667 10.1C11.3778 10.1 11.3 10.0694 11.2334 10.0083C11.1667 9.94721 11.1334 9.86666 11.1334 9.76666C11.1334 8.93332 10.825 8.2361 10.2084 7.67499C9.59169 7.11388 8.86113 6.83332 8.01669 6.83332C7.17224 6.83332 6.44724 7.11388 5.84169 7.67499C5.23613 8.2361 4.93335 8.93332 4.93335 9.76666C4.93335 10.6667 5.08891 11.4305 5.40002 12.0583C5.71113 12.6861 6.16669 13.3167 6.76669 13.95C6.83335 14.0167 6.86669 14.0944 6.86669 14.1833C6.86669 14.2722 6.83335 14.35 6.76669 14.4167C6.70002 14.4833 6.62224 14.5167 6.53335 14.5167C6.44446 14.5167 6.36669 14.4833 6.30002 14.4167ZM11.3334 13.2833C10.3445 13.2833 9.48613 12.95 8.75835 12.2833C8.03058 11.6167 7.66669 10.7778 7.66669 9.76666C7.66669 9.67777 7.69724 9.59999 7.75835 9.53333C7.81946 9.46666 7.90002 9.43332 8.00002 9.43332C8.10002 9.43332 8.18057 9.46666 8.24169 9.53333C8.3028 9.59999 8.33335 9.67777 8.33335 9.76666C8.33335 10.6 8.63335 11.2833 9.23335 11.8167C9.83335 12.35 10.5334 12.6167 11.3334 12.6167C11.4 12.6167 11.4945 12.6111 11.6167 12.6C11.7389 12.5889 11.8667 12.5722 12 12.55C12.1 12.5278 12.1861 12.5417 12.2584 12.5917C12.3306 12.6417 12.3778 12.7167 12.4 12.8167C12.4222 12.9055 12.4056 12.9833 12.35 13.05C12.2945 13.1167 12.2222 13.1611 12.1334 13.1833C11.9334 13.2389 11.7584 13.2694 11.6084 13.275C11.4584 13.2805 11.3667 13.2833 11.3334 13.2833Z" fill="white"/>
</g>
</svg>
