<?xml version="1.0" encoding="utf-8"?>
<!-- Generator: Adobe Illustrator 27.8.1, SVG Export Plug-In . SVG Version: 6.00 Build 0)  -->
<svg version="1.1" id="Layer_1" xmlns="http://www.w3.org/2000/svg" xmlns:xlink="http://www.w3.org/1999/xlink" x="0px" y="0px"
	 viewBox="0 0 524.9 195.22" style="enable-background:new 0 0 524.9 195.22;" xml:space="preserve">
<style type="text/css">
	.st0{fill:#FFFFFF;}
</style>
<g>
	<polygon class="st0" points="13.45,142.45 13.45,12.94 47.19,117.74 	"/>
	<polygon class="st0" points="122.52,142.45 122.52,12.94 88.77,117.74 	"/>
	<polygon class="st0" points="67.98,182.28 55.15,142.45 13.45,142.45 	"/>
	<polygon class="st0" points="67.98,182.28 80.82,142.45 122.52,142.45 	"/>
	<polygon class="st0" points="158.81,73.63 170.92,73.63 178.14,107.86 179.34,107.86 186.94,73.63 202.8,73.63 210.4,107.86 
		211.6,107.86 218.82,73.63 230.41,73.63 220.25,121.66 202.58,121.66 195.22,88.56 194.09,88.56 186.65,121.66 168.98,121.66 
		158.82,73.63 	"/>
	<polygon class="st0" points="237.93,111.38 247.34,111.38 247.34,83.91 237.93,83.91 237.93,73.63 268.55,73.63 268.55,83.91 
		259.14,83.91 259.14,111.38 268.55,111.38 268.55,121.66 237.93,121.66 	"/>
	<polygon class="st0" points="277.56,73.63 289.44,73.63 289.44,111.23 311.47,111.23 311.47,121.67 277.56,121.67 	"/>
	<path class="st0" d="M341.11,111.23c7.07,0,11.43-5.55,11.43-13.58s-4.36-13.58-11.43-13.58h-9.62v27.17H341.11z M319.6,73.63
		h20.08c14.66,0,25.04,9.08,25.04,24.02s-10.07,24.02-25.04,24.02H319.6V73.63z"/>
	<path class="st0" d="M370.83,97.65c0-14.94,10.37-25.15,24.96-25.15c13.39,0,22.55,7.8,23.01,19.14h-11.96
		c-1.43-6.08-4.74-8.64-9.17-8.64h-4.51c-5.87,0-10.37,6.6-10.37,14.64s4.51,14.64,10.37,14.64h4.51c4.44,0,7.89-2.55,9.33-8.64
		h11.96c-0.45,11.03-9.78,19.14-23.39,19.14s-24.75-8.55-24.75-25.15V97.65z"/>
	<path class="st0" d="M454.52,101.7l-5.26-16.14h-3.47l-5.26,16.14H454.52z M437.91,73.63h19.62l15.72,48.03h-12.18l-3.31-10.05
		H437.3l-3.31,10.05h-11.8L437.91,73.63z"/>
	<polygon class="st0" points="485.52,84.06 471.38,84.06 471.38,73.63 511.45,73.63 511.45,84.06 497.4,84.06 497.4,121.67 
		485.52,121.67 	"/>
</g>
</svg>
