<svg width="17" height="16" viewBox="0 0 17 16" fill="none" xmlns="http://www.w3.org/2000/svg">
<g id="sim_card_download">
<mask id="mask0_9_1377" style="mask-type:alpha" maskUnits="userSpaceOnUse" x="0" y="0" width="17" height="16">
<rect id="Bounding box" x="0.0410156" width="16" height="16" fill="#D9D9D9"/>
</mask>
<g mask="url(#mask0_9_1377)">
<path id="sim_card_download_2" d="M8.04098 11.3335L10.7076 8.66683L9.77431 7.7335L8.70764 8.76683V6.00016H7.37431V8.76683L6.30764 7.7335L5.37431 8.66683L8.04098 11.3335ZM4.04097 14.6668C3.67431 14.6668 3.36042 14.5363 3.09931 14.2752C2.8382 14.0141 2.70764 13.7002 2.70764 13.3335V5.3335L6.70764 1.3335H12.041C12.4076 1.3335 12.7215 1.46405 12.9826 1.72516C13.2438 1.98627 13.3743 2.30016 13.3743 2.66683V13.3335C13.3743 13.7002 13.2438 14.0141 12.9826 14.2752C12.7215 14.5363 12.4076 14.6668 12.041 14.6668H4.04097ZM4.04097 13.3335H12.041V2.66683H7.27431L4.04097 5.90016V13.3335Z" fill="white"/>
</g>
</g>
</svg>
